<?xml version="1.0" standalone="no"?>
<!DOCTYPE svg PUBLIC "-//W3C//DTD SVG 20010904//EN"
 "http://www.w3.org/TR/2001/REC-SVG-20010904/DTD/svg10.dtd">
<svg version="1.0" xmlns="http://www.w3.org/2000/svg"
 width="384.000000pt" height="384.000000pt" viewBox="0 0 384.000000 384.000000"
 preserveAspectRatio="xMidYMid meet">
<metadata>
Created by potrace 1.14, written by Peter Selinger 2001-2017
</metadata>
<g transform="translate(0.000000,384.000000) scale(0.100000,-0.100000)"
fill="#000000" stroke="none">
<path d="M1271 3647 c-149 -21 -211 -81 -300 -292 -109 -258 -118 -290 -127
-479 -3 -67 -7 -122 -8 -123 -1 -2 -106 -5 -232 -7 -238 -4 -273 -9 -334 -50
-74 -48 -200 -281 -241 -441 -37 -146 -32 -407 11 -615 6 -25 12 -56 14 -70
37 -206 138 -374 260 -437 121 -62 160 -67 527 -66 245 1 281 -1 316 -17 73
-32 94 -77 127 -265 13 -74 49 -226 69 -290 53 -175 188 -289 371 -314 69 -10
786 -6 856 4 114 17 195 88 239 210 12 33 42 105 66 160 74 172 84 200 95 271
12 74 7 155 -14 215 l-13 38 251 3 c287 5 314 11 385 81 80 79 209 333 239
472 8 37 8 216 -1 270 -17 114 -29 184 -38 225 -6 25 -12 56 -14 70 -6 51 -44
216 -59 257 -46 129 -133 220 -262 269 -67 27 -76 28 -304 31 -472 6 -461 6
-500 30 -51 32 -69 69 -96 206 -14 67 -27 129 -29 137 -2 8 -11 51 -20 95 -31
147 -74 233 -153 307 -54 50 -131 94 -183 103 -18 3 -37 9 -43 13 -15 9 -789
9 -855 -1z"/>
</g>
</svg>
