<?xml version="1.0" encoding="UTF-8"?><svg id="b" xmlns="http://www.w3.org/2000/svg" width="175.55" height="173.75" viewBox="0 0 175.55 173.75"><g id="c"><g id="d"><g><path d="m10.36,121.04L.54,138.05c-1.52,2.64.38,5.93,3.43,5.93h19.64c3.04,0,4.95-3.3,3.43-5.93l-9.82-17.01c-1.52-2.64-5.33-2.64-6.85,0Z" fill="#0b1016"/><path d="m60.2,121.04l-9.82,17.01c-1.52,2.64.38,5.93,3.43,5.93h19.64c3.04,0,4.95-3.3,3.43-5.93l-9.82-17.01c-1.52-2.64-5.33-2.64-6.85,0Z" fill="#0b1016"/><path d="m91.27,142.01l9.82-17.01c1.52-2.64-.38-5.93-3.43-5.93h-19.64c-3.04,0-4.95,3.3-3.43,5.93l9.82,17.01c1.52,2.64,5.33,2.64,6.85,0Z" fill="#0b1016" opacity=".7"/><path d="m108.84,121.04l-9.82,17.01c-1.52,2.64.38,5.93,3.43,5.93h19.64c3.04,0,4.95-3.3,3.43-5.93l-9.82-17.01c-1.52-2.64-5.33-2.64-6.85,0Z" fill="#0b1016"/><path d="m141.11,142.01l9.82-17.01c1.52-2.64-.38-5.93-3.43-5.93h-19.64c-3.04,0-4.95,3.3-3.43,5.93l9.82,17.01c1.52,2.64,5.33,2.64,6.85,0Z" fill="#0b1016" opacity=".7"/><path d="m34.43,150.8l-9.82,17.01c-1.52,2.64.38,5.93,3.43,5.93h19.64c3.04,0,4.95-3.3,3.43-5.93l-9.82-17.01c-1.52-2.64-5.33-2.64-6.85,0Z" fill="#0b1016"/><path d="m66.7,171.77l9.82-17.01c1.52-2.64-.38-5.93-3.43-5.93h-19.64c-3.04,0-4.95,3.3-3.43,5.93l9.82,17.01c1.52,2.64,5.33,2.64,6.85,0Z" fill="#0b1016"/><path d="m84.28,150.8l-9.82,17.01c-1.52,2.64.38,5.93,3.43,5.93h19.64c3.04,0,4.95-3.3,3.43-5.93l-9.82-17.01c-1.52-2.64-5.33-2.64-6.85,0Z" fill="#0b1016"/><path d="m115.35,171.77l9.82-17.01c1.52-2.64-.38-5.93-3.43-5.93h-19.64c-3.04,0-4.95,3.3-3.43,5.93l9.82,17.01c1.52,2.64,5.33,2.64,6.85,0Z" fill="#0b1016"/><path d="m132.92,150.8l-9.82,17.01c-1.52,2.64.38,5.93,3.43,5.93h19.64c3.04,0,4.95-3.3,3.43-5.93l-9.82-17.01c-1.52-2.64-5.33-2.64-6.85,0Z" fill="#0b1016"/><path d="m165.19,171.77l9.82-17.01c1.52-2.64-.38-5.93-3.43-5.93h-19.64c-3.04,0-4.95,3.3-3.43,5.93l9.82,17.01c1.52,2.64,5.33,2.64,6.85,0Z" fill="#0b1016"/><path d="m17.21,171.77l9.82-17.01c1.52-2.64-.38-5.93-3.43-5.93H3.96c-3.04,0-4.95,3.3-3.43,5.93l9.82,17.01c1.52,2.64,5.33,2.64,6.85,0Z" fill="#0b1016"/><path d="m60.2,61.51l-9.82,17.01c-1.52,2.64.38,5.93,3.43,5.93h19.64c3.04,0,4.95-3.3,3.43-5.93l-9.82-17.01c-1.52-2.64-5.33-2.64-6.85,0Z" fill="#0b1016" opacity=".7"/><path d="m108.84,61.51l-9.82,17.01c-1.52,2.64.38,5.93,3.43,5.93h19.64c3.04,0,4.95-3.3,3.43-5.93l-9.82-17.01c-1.52-2.64-5.33-2.64-6.85,0Z" fill="#0b1016" opacity=".7"/><path d="m141.11,82.49l9.82-17.01c1.52-2.64-.38-5.93-3.43-5.93h-19.64c-3.04,0-4.95,3.3-3.43,5.93l9.82,17.01c1.52,2.64,5.33,2.64,6.85,0Z" fill="#0b1016" opacity=".7"/><path d="m34.43,91.27l-9.82,17.01c-1.52,2.64.38,5.93,3.43,5.93h19.64c3.04,0,4.95-3.3,3.43-5.93l-9.82-17.01c-1.52-2.64-5.33-2.64-6.85,0Z" fill="#0b1016"/><path d="m66.7,112.25l9.82-17.01c1.52-2.64-.38-5.93-3.43-5.93h-19.64c-3.04,0-4.95,3.3-3.43,5.93l9.82,17.01c1.52,2.64,5.33,2.64,6.85,0Z" fill="#0b1016" opacity=".7"/><path d="m84.28,91.27l-9.82,17.01c-1.52,2.64.38,5.93,3.43,5.93h19.64c3.04,0,4.95-3.3,3.43-5.93l-9.82-17.01c-1.52-2.64-5.33-2.64-6.85,0Z" fill="#0b1016"/><path d="m115.35,112.25l9.82-17.01c1.52-2.64-.38-5.93-3.43-5.93h-19.64c-3.04,0-4.95,3.3-3.43,5.93l9.82,17.01c1.52,2.64,5.33,2.64,6.85,0Z" fill="#0b1016" opacity=".7"/><path d="m132.92,91.27l-9.82,17.01c-1.52,2.64.38,5.93,3.43,5.93h19.64c3.04,0,4.95-3.3,3.43-5.93l-9.82-17.01c-1.52-2.64-5.33-2.64-6.85,0Z" fill="#0b1016" opacity=".7"/><path d="m42.52,22.95l9.82-17.01C53.86,3.3,51.96,0,48.92,0h-19.64c-3.04,0-4.95,3.3-3.43,5.93l9.82,17.01c1.52,2.64,5.33,2.64,6.85,0Z" fill="#0b1016" opacity=".5"/><path d="m108.74,1.98l-9.82,17.01c-1.52,2.64.38,5.93,3.43,5.93h19.64c3.04,0,4.95-3.3,3.43-5.93L115.59,1.98c-1.52-2.64-5.33-2.64-6.85,0Z" fill="#0b1016" opacity=".7"/><path d="m141.01,22.95l9.82-17.01c1.52-2.64-.38-5.93-3.43-5.93h-19.64c-3.04,0-4.95,3.3-3.43,5.93l9.82,17.01c1.52,2.64,5.33,2.64,6.85,0Z" fill="#0b1016" opacity=".5"/><path d="m34.33,31.74l-9.82,17.01c-1.52,2.64.38,5.93,3.43,5.93h19.64c3.04,0,4.95-3.3,3.43-5.93l-9.82-17.01c-1.52-2.64-5.33-2.64-6.85,0Z" fill="#0b1016" opacity=".5"/><path d="m66.6,52.71l9.82-17.01c1.52-2.64-.38-5.93-3.43-5.93h-19.64c-3.04,0-4.95,3.3-3.43,5.93l9.82,17.01c1.52,2.64,5.33,2.64,6.85,0Z" fill="#0b1016" opacity=".7"/><path d="m84.17,31.74l-9.82,17.01c-1.52,2.64.38,5.93,3.43,5.93h19.64c3.04,0,4.95-3.3,3.43-5.93l-9.82-17.01c-1.52-2.64-5.33-2.64-6.85,0Z" fill="#0b1016" opacity=".5"/><path d="m165.09,52.71l9.82-17.01c1.52-2.64-.38-5.93-3.43-5.93h-19.64c-3.04,0-4.95,3.3-3.43,5.93l9.82,17.01c1.52,2.64,5.33,2.64,6.85,0Z" fill="#0b1016" opacity=".5"/></g></g></g></svg>