<svg width="390" height="505" viewBox="0 0 390 505" fill="none" xmlns="http://www.w3.org/2000/svg">
<mask id="mask0_314_289" style="mask-type:alpha" maskUnits="userSpaceOnUse" x="0" y="0" width="390" height="505">
<rect width="390" height="505" fill="url(#paint0_radial_314_289)"/>
</mask>
<g mask="url(#mask0_314_289)">
<mask id="mask1_314_289" style="mask-type:alpha" maskUnits="userSpaceOnUse" x="0" y="0" width="390" height="391">
<g style="mix-blend-mode:screen">
<path d="M0 0H390V291L250.566 374.661C216.364 395.182 173.636 395.182 139.434 374.661L0 291V0Z" fill="url(#paint1_radial_314_289)"/>
</g>
</mask>
<g mask="url(#mask1_314_289)">
<mask id="mask2_314_289" style="mask-type:alpha" maskUnits="userSpaceOnUse" x="0" y="0" width="390" height="391">
<g style="mix-blend-mode:screen">
<path d="M0 0H390V291L250.566 374.661C216.364 395.182 173.636 395.182 139.434 374.661L0 291V0Z" fill="url(#paint2_radial_314_289)"/>
</g>
</mask>
<g mask="url(#mask2_314_289)">
<g style="mix-blend-mode:screen">
<path d="M0 0H390V291L250.566 374.661C216.364 395.182 173.636 395.182 139.434 374.661L0 291V0Z" fill="url(#paint3_radial_314_289)"/>
</g>
<g style="mix-blend-mode:screen">
<path d="M79.4333 270.934L58.1765 307.744C54.8862 313.457 58.9991 320.577 65.6012 320.577H108.115C114.695 320.577 118.83 313.436 115.54 307.744L94.2828 270.934C90.9925 265.221 82.7452 265.221 79.455 270.934H79.4333Z" fill="#0B1016"/>
<path d="M187.319 270.934L166.062 307.744C162.772 313.457 166.885 320.577 173.487 320.577H216.001C222.581 320.577 226.716 313.436 223.426 307.744L202.169 270.934C198.879 265.221 190.631 265.221 187.341 270.934H187.319Z" fill="#0B1016"/>
<path opacity="0.7" d="M254.575 316.314L275.832 279.504C279.122 273.791 275.009 266.671 268.407 266.671H225.893C219.313 266.671 215.178 273.812 218.469 279.504L239.725 316.314C243.016 322.027 251.263 322.027 254.553 316.314H254.575Z" fill="#0B1016"/>
<path d="M292.608 270.934L271.351 307.744C268.061 313.457 272.173 320.577 278.776 320.577H321.289C327.87 320.577 332.004 313.436 328.714 307.744L307.457 270.934C304.167 265.221 295.92 265.221 292.629 270.934H292.608Z" fill="#0B1016"/>
<path opacity="0.7" d="M362.461 316.314L383.718 279.504C387.008 273.791 382.895 266.671 376.293 266.671H333.779C327.199 266.671 323.064 273.812 326.355 279.504L347.611 316.314C350.902 322.027 359.149 322.027 362.439 316.314H362.461Z" fill="#0B1016"/>
<path d="M131.536 335.336L110.28 372.146C106.989 377.859 111.102 384.978 117.704 384.978H160.218C166.798 384.978 170.933 377.837 167.643 372.146L146.386 335.336C143.096 329.623 134.848 329.623 131.558 335.336H131.536Z" fill="#0B1016"/>
<path d="M201.39 380.715L222.646 343.905C225.937 338.192 221.824 331.072 215.222 331.072H172.708C166.127 331.072 161.993 338.214 165.283 343.905L186.54 380.715C189.83 386.428 198.078 386.428 201.368 380.715H201.39Z" fill="#0B1016"/>
<path d="M239.444 335.336L218.187 372.146C214.897 377.859 219.01 384.978 225.612 384.978H268.126C274.706 384.978 278.841 377.837 275.55 372.146L254.293 335.336C251.003 329.623 242.756 329.623 239.466 335.336H239.444Z" fill="#0B1016"/>
<path d="M306.7 380.715L327.956 343.905C331.247 338.192 327.134 331.072 320.532 331.072H278.018C271.438 331.072 267.303 338.214 270.593 343.905L291.85 380.715C295.14 386.428 303.388 386.428 306.678 380.715H306.7Z" fill="#0B1016"/>
<path d="M344.732 335.336L323.476 372.146C320.185 377.859 324.298 384.978 330.9 384.978H373.414C379.994 384.978 384.129 377.837 380.839 372.146L359.582 335.336C356.292 329.623 348.044 329.623 344.754 335.336H344.732Z" fill="#0B1016"/>
<path d="M414.586 380.715L435.842 343.905C439.133 338.192 435.02 331.072 428.418 331.072H385.904C379.324 331.072 375.189 338.214 378.479 343.905L399.736 380.715C403.026 386.428 411.274 386.428 414.564 380.715H414.586Z" fill="#0B1016"/>
<path d="M94.2611 380.715L115.518 343.905C118.808 338.192 114.695 331.072 108.093 331.072H65.5796C58.9991 331.072 54.8646 338.214 58.1548 343.905L79.4117 380.715C82.7019 386.428 90.9492 386.428 94.2395 380.715H94.2611Z" fill="#0B1016"/>
<path opacity="0.7" d="M187.319 142.109L166.062 178.92C162.772 184.633 166.885 191.752 173.487 191.752H216.001C222.581 191.752 226.716 184.611 223.426 178.92L202.169 142.109C198.879 136.396 190.631 136.396 187.341 142.109H187.319Z" fill="#0B1016"/>
<path opacity="0.7" d="M292.608 142.109L271.351 178.92C268.061 184.633 272.173 191.752 278.776 191.752H321.289C327.87 191.752 332.004 184.611 328.714 178.92L307.457 142.109C304.167 136.396 295.92 136.396 292.629 142.109H292.608Z" fill="#0B1016"/>
<path opacity="0.7" d="M362.461 187.511L383.718 150.701C387.008 144.988 382.895 137.868 376.293 137.868H333.779C327.199 137.868 323.064 145.009 326.355 150.701L347.611 187.511C350.902 193.224 359.149 193.224 362.439 187.511H362.461Z" fill="#0B1016"/>
<path d="M131.536 206.511L110.28 243.321C106.989 249.034 111.102 256.154 117.704 256.154H160.218C166.798 256.154 170.933 249.012 167.643 243.321L146.386 206.511C143.096 200.798 134.848 200.798 131.558 206.511H131.536Z" fill="#0B1016"/>
<path opacity="0.7" d="M201.39 251.912L222.646 215.102C225.937 209.389 221.824 202.27 215.222 202.27H172.708C166.127 202.27 161.993 209.411 165.283 215.102L186.54 251.912C189.83 257.625 198.078 257.625 201.368 251.912H201.39Z" fill="#0B1016"/>
<path d="M239.444 206.511L218.187 243.321C214.897 249.034 219.01 256.154 225.612 256.154H268.126C274.706 256.154 278.841 249.012 275.55 243.321L254.293 206.511C251.003 200.798 242.756 200.798 239.466 206.511H239.444Z" fill="#0B1016"/>
<path opacity="0.7" d="M306.7 251.912L327.956 215.102C331.247 209.389 327.134 202.27 320.532 202.27H278.018C271.438 202.27 267.303 209.411 270.593 215.102L291.85 251.912C295.14 257.625 303.388 257.625 306.678 251.912H306.7Z" fill="#0B1016"/>
<path opacity="0.7" d="M344.732 206.511L323.476 243.321C320.185 249.034 324.298 256.154 330.9 256.154H373.414C379.994 256.154 384.129 249.012 380.839 243.321L359.582 206.511C356.292 200.798 348.044 200.798 344.754 206.511H344.732Z" fill="#0B1016"/>
<path opacity="0.5" d="M149.048 58.6645L170.305 21.8544C173.595 16.1414 169.483 9.00008 162.902 9.00008H120.388C113.808 9.00008 109.673 16.1414 112.964 21.8328L134.221 58.6429C137.511 64.3559 145.758 64.3559 149.048 58.6429V58.6645Z" fill="#0B1016"/>
<path opacity="0.7" d="M292.391 13.2849L271.134 50.095C267.844 55.808 271.957 62.9277 278.559 62.9277H321.073C327.653 62.9277 331.788 55.7864 328.497 50.095L307.219 13.2849C303.929 7.57182 295.681 7.57182 292.391 13.2849Z" fill="#0B1016"/>
<path opacity="0.5" d="M362.244 58.6646L383.501 21.8545C386.791 16.1415 382.679 9.02182 376.076 9.02182H333.563C326.982 9.02182 322.848 16.1631 326.138 21.8545L347.395 58.6646C350.685 64.3777 358.932 64.3777 362.223 58.6646H362.244Z" fill="#0B1016"/>
<path opacity="0.5" d="M131.32 77.6862L110.063 114.496C106.773 120.209 110.886 127.329 117.488 127.329H160.001C166.582 127.329 170.716 120.188 167.426 114.496L146.169 77.6862C142.879 71.9732 134.632 71.9732 131.341 77.6862H131.32Z" fill="#0B1016"/>
<path opacity="0.7" d="M201.173 123.066L222.43 86.2559C225.72 80.5428 221.607 73.4232 215.005 73.4232H172.491C165.911 73.4232 161.776 80.5645 165.067 86.2559L186.324 123.066C189.614 128.779 197.861 128.779 201.151 123.066H201.173Z" fill="#0B1016"/>
<path opacity="0.5" d="M239.206 77.6862L217.949 114.496C214.659 120.209 218.772 127.329 225.374 127.329H267.887C274.468 127.329 278.602 120.188 275.312 114.496L254.055 77.6862C250.765 71.9732 242.518 71.9732 239.227 77.6862H239.206Z" fill="#0B1016"/>
<path opacity="0.5" d="M414.369 123.066L435.626 86.2559C438.916 80.5428 434.803 73.4232 428.201 73.4232H385.687C379.107 73.4232 374.972 80.5645 378.263 86.2559L399.52 123.066C402.81 128.779 411.057 128.779 414.347 123.066H414.369Z" fill="#0B1016"/>
</g>
</g>
</g>
</g>
<defs>
<radialGradient id="paint0_radial_314_289" cx="0" cy="0" r="1" gradientUnits="userSpaceOnUse" gradientTransform="translate(195 387) rotate(90) scale(118 118)">
<stop offset="0.53125" stop-opacity="0"/>
<stop offset="0.53135" stop-color="#D9D9D9"/>
</radialGradient>
<radialGradient id="paint1_radial_314_289" cx="0" cy="0" r="1" gradientUnits="userSpaceOnUse" gradientTransform="translate(195 166) rotate(180) scale(195 186)">
<stop stop-color="#B0B0B0" stop-opacity="0.48"/>
<stop offset="1"/>
</radialGradient>
<radialGradient id="paint2_radial_314_289" cx="0" cy="0" r="1" gradientUnits="userSpaceOnUse" gradientTransform="translate(276.5 326.5) rotate(-120.698) scale(387.848 623.368)">
<stop stop-color="#6652DD"/>
<stop offset="1" stop-color="#D236BE"/>
</radialGradient>
<radialGradient id="paint3_radial_314_289" cx="0" cy="0" r="1" gradientUnits="userSpaceOnUse" gradientTransform="translate(276.5 326.5) rotate(-120.698) scale(387.848 623.368)">
<stop stop-color="#3E56DD"/>
<stop offset="1" stop-color="#D236BE"/>
</radialGradient>
</defs>
</svg>
