<svg width="1224" height="1105" viewBox="0 0 1224 1105" fill="none" xmlns="http://www.w3.org/2000/svg">
<mask id="mask0_50_153" style="mask-type:alpha" maskUnits="userSpaceOnUse" x="0" y="0" width="1224" height="1105">
<rect width="1224" height="1105" fill="url(#paint0_radial_50_153)"/>
</mask>
<g mask="url(#mask0_50_153)">
<g style="mix-blend-mode:screen">
<mask id="mask1_50_153" style="mask-type:alpha" maskUnits="userSpaceOnUse" x="-27" y="0" width="929" height="921">
<path fill-rule="evenodd" clip-rule="evenodd" d="M-27 648H756.55C849.82 648 918.94 561.39 898.25 470.45L791.25 0H-27V648ZM750.5 581C796.063 581 833 544.063 833 498.5C833 452.937 796.063 416 750.5 416C704.937 416 668 452.937 668 498.5C668 544.063 704.937 581 750.5 581Z" fill="#0B1016"/>
<mask id="mask2_50_153" style="mask-type:alpha" maskUnits="userSpaceOnUse" x="-27" y="664" width="822" height="257">
<path d="M713.84 769.98L670.17 694.33C662.53 681.1 672.08 664.56 687.36 664.56H774.71C789.99 664.56 799.54 681.1 791.9 694.33L748.23 769.98C740.59 783.21 721.49 783.21 713.85 769.98H713.84ZM594.83 675.77L551.16 751.42C543.52 764.65 553.07 781.19 568.35 781.19H655.7C670.98 781.19 680.53 764.65 672.89 751.42L629.22 675.77C621.58 662.54 602.48 662.54 594.84 675.77H594.83ZM514.86 769.98L558.53 694.33C566.17 681.1 556.62 664.56 541.34 664.56H453.99C438.71 664.56 429.16 681.1 436.8 694.33L480.47 769.98C488.11 783.21 507.21 783.21 514.85 769.98H514.86ZM367.09 675.77L323.42 751.42C315.78 764.65 325.33 781.19 340.61 781.19H427.96C443.24 781.19 452.79 764.65 445.15 751.42L401.48 675.77C393.84 662.54 374.74 662.54 367.1 675.77H367.09ZM287.11 769.98L330.78 694.33C338.42 681.1 328.87 664.56 313.59 664.56H226.24C210.96 664.56 201.41 681.1 209.05 694.33L252.72 769.98C260.36 783.21 279.46 783.21 287.1 769.98H287.11ZM632.03 909.28L675.7 833.63C683.34 820.4 673.79 803.86 658.51 803.86H571.16C555.88 803.86 546.33 820.4 553.97 833.63L597.64 909.28C605.28 922.51 624.38 922.51 632.02 909.28H632.03ZM478.64 815.07L434.97 890.72C427.33 903.95 436.88 920.49 452.16 920.49H539.51C554.79 920.49 564.34 903.95 556.7 890.72L513.03 815.07C505.39 801.84 486.29 801.84 478.65 815.07H478.64ZM398.67 909.28L442.34 833.63C449.98 820.4 440.43 803.86 425.15 803.86H337.8C322.52 803.86 312.97 820.4 320.61 833.63L364.28 909.28C371.92 922.51 391.02 922.51 398.66 909.28H398.67ZM250.89 815.08L207.22 890.73C199.58 903.96 209.13 920.5 224.41 920.5H311.76C327.04 920.5 336.59 903.96 328.95 890.73L285.28 815.08C277.64 801.85 258.54 801.85 250.9 815.08H250.89ZM170.91 909.29L214.58 833.64C222.22 820.41 212.67 803.87 197.39 803.87H110.04C94.76 803.87 85.21 820.41 92.85 833.64L136.52 909.29C144.16 922.52 163.26 922.52 170.9 909.29H170.91ZM133.72 675.79L90.05 751.44C82.41 764.67 91.96 781.21 107.24 781.21H194.59C209.87 781.21 219.42 764.67 211.78 751.44L168.11 675.79C160.47 662.56 141.37 662.56 133.73 675.79H133.72ZM53.75 770L97.42 694.35C105.06 681.12 95.51 664.58 80.23 664.58H-7.11999C-22.4 664.58 -31.95 681.12 -24.31 694.35L19.36 770C27 783.23 46.1 783.23 53.74 770H53.75Z" fill="#0B1016"/>
</mask>
<g mask="url(#mask2_50_153)">
<rect x="-48" y="651" width="902" height="284" fill="url(#paint1_linear_50_153)"/>
</g>
</mask>
<g mask="url(#mask1_50_153)">
<rect width="1224" height="1105" fill="url(#paint2_radial_50_153)"/>
<g style="mix-blend-mode:screen">
<path d="M145.786 401.492L100.475 479.978C93.4618 492.16 102.229 507.34 116.302 507.34H206.923C220.95 507.34 229.763 492.114 222.749 479.978L177.439 401.492C170.425 389.311 152.845 389.311 145.832 401.492H145.786Z" fill="#0B1016"/>
<path opacity="0.7" d="M289.146 498.25L334.457 419.764C341.47 407.583 332.704 392.403 318.631 392.403H228.009C213.982 392.403 205.169 407.629 212.183 419.764L257.494 498.25C264.507 510.432 282.087 510.432 289.1 498.25H289.146Z" fill="#0B1016"/>
<path d="M370.216 401.492L324.906 479.978C317.892 492.16 326.659 507.34 340.732 507.34H431.353C445.38 507.34 454.193 492.114 447.18 479.978L401.869 401.492C394.856 389.311 377.276 389.311 370.263 401.492H370.216Z" fill="#0B1016"/>
<path opacity="0.7" d="M519.114 498.25L564.424 419.764C571.438 407.583 562.671 392.403 548.598 392.403H457.977C443.95 392.403 435.137 407.629 442.15 419.764L487.461 498.25C494.474 510.432 512.054 510.432 519.068 498.25H519.114Z" fill="#0B1016"/>
<path d="M26.8801 538.809L-18.4305 617.295C-25.444 629.476 -16.6771 644.656 -2.60409 644.656H88.0171C102.044 644.656 110.857 629.43 103.844 617.295L58.5329 538.809C51.5195 526.627 33.9397 526.627 26.9262 538.809H26.8801Z" fill="#0B1016"/>
<path d="M175.778 635.567L221.088 557.08C228.102 544.899 219.335 529.719 205.262 529.719H114.641C100.614 529.719 91.8007 544.945 98.8141 557.08L144.125 635.567C151.138 647.748 168.718 647.748 175.731 635.567H175.778Z" fill="#0B1016"/>
<path d="M256.894 538.809L211.583 617.295C204.57 629.476 213.336 644.656 227.41 644.656H318.031C332.058 644.656 340.871 629.43 333.857 617.295L288.547 538.809C281.533 526.627 263.953 526.627 256.94 538.809H256.894Z" fill="#0B1016"/>
<path d="M400.254 635.567L445.565 557.08C452.578 544.899 443.811 529.719 429.738 529.719H339.117C325.09 529.719 316.277 544.945 323.291 557.08L368.601 635.567C375.615 647.748 393.195 647.748 400.208 635.567H400.254Z" fill="#0B1016"/>
<path d="M481.324 538.809L436.014 617.295C429 629.476 437.767 644.656 451.84 644.656H542.461C556.488 644.656 565.301 629.43 558.288 617.295L512.977 538.809C505.964 526.627 488.384 526.627 481.37 538.809H481.324Z" fill="#0B1016"/>
<path d="M630.222 635.567L675.532 557.08C682.546 544.899 673.779 529.719 659.706 529.719H569.085C555.058 529.719 546.245 544.945 553.258 557.08L598.569 635.567C605.582 647.748 623.162 647.748 630.175 635.567H630.222Z" fill="#0B1016"/>
<path opacity="0.7" d="M145.786 126.814L100.475 205.3C93.4618 217.481 102.229 232.662 116.302 232.662H206.923C220.95 232.662 229.763 217.435 222.749 205.3L177.439 126.814C170.425 114.633 152.845 114.633 145.832 126.814H145.786Z" fill="#0B1016"/>
<path opacity="0.7" d="M370.216 126.814L324.906 205.3C317.892 217.481 326.659 232.662 340.732 232.662H431.353C445.38 232.662 454.193 217.435 447.18 205.3L401.869 126.814C394.856 114.633 377.276 114.633 370.263 126.814H370.216Z" fill="#0B1016"/>
<path opacity="0.7" d="M519.114 223.618L564.424 145.132C571.438 132.951 562.671 117.771 548.598 117.771H457.977C443.95 117.771 435.137 132.997 442.15 145.132L487.461 223.618C494.474 235.8 512.054 235.8 519.068 223.618H519.114Z" fill="#0B1016"/>
<path d="M26.8801 264.13L-18.4305 342.616C-25.444 354.798 -16.6771 369.978 -2.60409 369.978H88.0171C102.044 369.978 110.857 354.751 103.844 342.616L58.5329 264.13C51.5195 251.949 33.9397 251.949 26.9262 264.13H26.8801Z" fill="#0B1016"/>
<path opacity="0.7" d="M175.778 360.934L221.088 282.448C228.102 270.267 219.335 255.087 205.262 255.087H114.641C100.614 255.087 91.8007 270.313 98.8141 282.448L144.125 360.934C151.138 373.116 168.718 373.116 175.731 360.934H175.778Z" fill="#0B1016"/>
<path d="M256.894 264.13L211.583 342.616C204.57 354.798 213.336 369.978 227.41 369.978H318.031C332.058 369.978 340.871 354.751 333.857 342.616L288.547 264.13C281.533 251.949 263.953 251.949 256.94 264.13H256.894Z" fill="#0B1016"/>
<path opacity="0.7" d="M400.254 360.934L445.565 282.448C452.578 270.267 443.811 255.087 429.738 255.087H339.117C325.09 255.087 316.277 270.313 323.291 282.448L368.601 360.934C375.615 373.116 393.195 373.116 400.208 360.934H400.254Z" fill="#0B1016"/>
<path opacity="0.7" d="M481.324 264.13L436.014 342.616C429 354.798 437.767 369.978 451.84 369.978H542.461C556.488 369.978 565.301 354.751 558.288 342.616L512.977 264.13C505.964 251.949 488.384 251.949 481.37 264.13H481.324Z" fill="#0B1016"/>
<path opacity="0.5" d="M26.4187 -10.5481L-18.8919 67.938C-25.9054 80.1192 -17.1386 95.2997 -3.06552 95.2997H87.5557C101.583 95.2997 110.396 80.0731 103.382 67.938L58.0715 -10.5481C51.058 -22.7294 33.4783 -22.7294 26.4648 -10.5481H26.4187Z" fill="#0B1016"/>
<path opacity="0.7" d="M175.316 86.2099L220.627 7.72383C227.64 -4.45743 218.873 -19.6379 204.8 -19.6379H114.179C100.152 -19.6379 91.3392 -4.41129 98.3527 7.72383L143.663 86.2099C150.677 98.3912 168.257 98.3912 175.27 86.2099H175.316Z" fill="#0B1016"/>
<path opacity="0.5" d="M256.386 -10.5481L211.076 67.938C204.062 80.1192 212.829 95.2997 226.902 95.2997H317.523C331.55 95.2997 340.363 80.0731 333.35 67.938L288.039 -10.5481C281.025 -22.7294 263.446 -22.7294 256.432 -10.5481H256.386Z" fill="#0B1016"/>
<path opacity="0.5" d="M629.76 86.2099L675.071 7.72383C682.084 -4.45743 673.317 -19.6379 659.244 -19.6379H568.623C554.596 -19.6379 545.783 -4.41129 552.797 7.72383L598.107 86.2099C605.121 98.3912 622.701 98.3912 629.714 86.2099H629.76Z" fill="#0B1016"/>
</g>
</g>
</g>
</g>
<defs>
<radialGradient id="paint0_radial_50_153" cx="0" cy="0" r="1" gradientUnits="userSpaceOnUse" gradientTransform="translate(430.5 292.5) rotate(-16.8141) scale(262.732 291.027)">
<stop stop-color="#3E56DD" stop-opacity="0.47"/>
<stop offset="1" stop-color="#D236BE"/>
</radialGradient>
<linearGradient id="paint1_linear_50_153" x1="-48" y1="935" x2="862.5" y2="935" gradientUnits="userSpaceOnUse">
<stop stop-color="#D9D9D9" stop-opacity="0"/>
<stop offset="1" stop-color="#D9D9D9" stop-opacity="0.54"/>
</linearGradient>
<radialGradient id="paint2_radial_50_153" cx="0" cy="0" r="1" gradientUnits="userSpaceOnUse" gradientTransform="translate(680.5 697) rotate(-124.249) scale(1038.59 1150.43)">
<stop offset="0.189366" stop-color="#3E56DD"/>
<stop offset="1" stop-color="#D236BE"/>
</radialGradient>
</defs>
</svg>
